<svg xmlns="http://www.w3.org/2000/svg" version="1.1" xmlns:xlink="http://www.w3.org/1999/xlink" xmlns:svgjs="http://svgjs.dev/svgjs" width="2000" height="287" viewBox="0 0 2000 287"><g transform="matrix(1,0,0,1,-1.2121212121212466,0.9514906006427566)"><svg viewBox="0 0 396 57" data-background-color="#ffffff" preserveAspectRatio="xMidYMid meet" height="287" width="2000" xmlns="http://www.w3.org/2000/svg" xmlns:xlink="http://www.w3.org/1999/xlink"><g id="tight-bounds" transform="matrix(1,0,0,1,0.2400000000000091,-0.1889720008245206)"><svg viewBox="0 0 395.52 57.377944001649034" height="57.377944001649034" width="395.52"><g><svg viewBox="0 0 649.7311093646451 94.25625811401171" height="57.377944001649034" width="395.52"><g><rect width="6.150598139782887" height="81.84335002663825" x="231.95946897412173" y="6.206454043686733" fill="#000000" opacity="1" stroke-width="0" stroke="transparent" fill-opacity="1" class="rect-qz-0" data-fill-palette-color="primary" rx="1%" id="qz-0" data-palette-color="#000000"></rect></g><g transform="matrix(1,0,0,1,254.21110936464515,13.026733212573255)"><svg viewBox="0 0 395.52 68.2027916888652" height="68.2027916888652" width="395.52"><g id="textblocktransform"><svg viewBox="0 0 395.52 68.2027916888652" height="68.2027916888652" width="395.52" id="textblock"><g><svg viewBox="0 0 395.52 68.2027916888652" height="68.2027916888652" width="395.52"><g transform="matrix(1,0,0,1,0,0)"><svg width="395.52" viewBox="0.95 -43.2 281.52000000000004 48.550000000000004" height="68.2027916888652" data-palette-color="#000000"><path d="M11.45 0.4Q8.5 0.4 6.1-0.75 3.7-1.9 2.33-4.13 0.95-6.35 0.95-9.5L0.95-9.5 0.95-20.25 9.4-20.25 9.4-10Q9.4-8.85 9.88-8.18 10.35-7.5 11.35-7.5L11.35-7.5Q12.3-7.5 12.78-8.13 13.25-8.75 13.25-9.9L13.25-9.9 13.25-42.95 21.9-42.95 21.9-10.75Q21.9-7.4 20.58-4.88 19.25-2.35 16.88-0.98 14.5 0.4 11.45 0.4L11.45 0.4ZM31.7 0.4Q27.45 0.4 25.87-2.43 24.3-5.25 24.3-10.5L24.3-10.5Q24.3-14.8 25.42-17.1 26.55-19.4 28.55-20.48 30.55-21.55 34.65-22.85L34.65-22.85 37.05-23.65 37.05-23.75 37.05-27.4Q37.05-28.85 36.47-29.63 35.9-30.4 35.1-30.4L35.1-30.4Q34.4-30.4 33.87-29.75 33.35-29.1 33.35-28L33.35-28 33.35-25.8 24.85-25.8 24.85-27Q24.85-32.4 27.37-34.7 29.9-37 35.6-37L35.6-37Q40.15-37 43-34.63 45.85-32.25 45.85-27.9L45.85-27.9 45.85 0 37.15 0 37.15-4.35Q36.5-2.1 35.07-0.85 33.65 0.4 31.7 0.4L31.7 0.4ZM35.15-6.4Q36.15-6.4 36.57-7.23 37-8.05 37-9.25L37-9.25 37-19.45Q35.05-18.7 34.12-17.55 33.2-16.4 33.2-14.35L33.2-14.35 33.2-9.65Q33.2-6.4 35.15-6.4L35.15-6.4ZM59.05 5.35Q55.15 5.35 52.92 4.73 50.7 4.1 48.55 2.35L48.55 2.35 51.55-2.7Q54.75-0.8 57.9-0.8L57.9-0.8Q59.95-0.8 61-2.1 62.05-3.4 62.05-5.65L62.05-5.65 62.05-7.65Q61-3.9 56.5-3.9L56.5-3.9Q52.75-3.9 50.97-6.45 49.2-9 49.2-13.25L49.2-13.25 49.2-27Q49.2-31.85 50.82-34.43 52.45-37 56.5-37L56.5-37Q58.85-37 60.22-35.83 61.6-34.65 62.05-32.5L62.05-32.5 62.05-36.6 71-36.6 71-6.2Q71-0.05 68.15 2.65 65.3 5.35 59.05 5.35L59.05 5.35ZM60-10.5Q62.05-10.5 62.05-14.2L62.05-14.2 62.05-27.25Q62.05-28.35 61.45-29.35 60.85-30.35 59.95-30.35L59.95-30.35Q58.8-30.35 58.4-29.53 58-28.7 58-27.25L58-27.25 58-14.2Q58-12.55 58.4-11.53 58.8-10.5 60-10.5L60-10.5ZM81.44 0.4Q77.34 0.4 75.82-2.05 74.29-4.5 74.29-9.35L74.29-9.35 74.29-36.6 83.09-36.6 83.09-11.1Q83.09-10.75 83.09-9.22 83.09-7.7 83.57-7.08 84.04-6.45 85.04-6.45L85.04-6.45Q86.39-6.45 86.74-7.58 87.09-8.7 87.09-10.8L87.09-10.8 87.09-11.1 87.14-36.6 95.84-36.6 95.84 0 87.09 0 87.09-3.9Q86.19-1.6 84.99-0.6 83.79 0.4 81.44 0.4L81.44 0.4ZM105.99 0.4Q101.74 0.4 100.17-2.43 98.59-5.25 98.59-10.5L98.59-10.5Q98.59-14.8 99.72-17.1 100.84-19.4 102.84-20.48 104.84-21.55 108.94-22.85L108.94-22.85 111.34-23.65 111.34-23.75 111.34-27.4Q111.34-28.85 110.77-29.63 110.19-30.4 109.39-30.4L109.39-30.4Q108.69-30.4 108.17-29.75 107.64-29.1 107.64-28L107.64-28 107.64-25.8 99.14-25.8 99.14-27Q99.14-32.4 101.67-34.7 104.19-37 109.89-37L109.89-37Q114.44-37 117.29-34.63 120.14-32.25 120.14-27.9L120.14-27.9 120.14 0 111.44 0 111.44-4.35Q110.79-2.1 109.37-0.85 107.94 0.4 105.99 0.4L105.99 0.4ZM109.44-6.4Q110.44-6.4 110.87-7.23 111.29-8.05 111.29-9.25L111.29-9.25 111.29-19.45Q109.34-18.7 108.42-17.55 107.49-16.4 107.49-14.35L107.49-14.35 107.49-9.65Q107.49-6.4 109.44-6.4L109.44-6.4ZM123.49 0L123.49-36.6 132.24-36.6 132.24-32.55Q132.89-34.7 134.51-35.88 136.14-37.05 138.54-37.05L138.54-37.05 138.54-29.75Q136.69-29.75 134.46-29.23 132.24-28.7 132.24-28L132.24-28 132.24 0 123.49 0ZM152.53 0L152.53-42.95 163.88-42.95Q169.03-42.95 171.23-39.63 173.43-36.3 173.43-29.9L173.43-29.9Q173.43-23.5 171.48-20.25 169.53-17 164.48-17L164.48-17 160.98-17 160.98 0 152.53 0ZM160.98-24.75L161.48-24.75Q163.03-24.75 163.76-25.33 164.48-25.9 164.71-26.98 164.93-28.05 164.93-30.05L164.93-30.05Q164.93-32.75 164.33-33.95 163.73-35.15 161.93-35.15L161.93-35.15 160.98-35.15 160.98-24.75ZM182.63 0.4Q178.38 0.4 176.81-2.43 175.23-5.25 175.23-10.5L175.23-10.5Q175.23-14.8 176.36-17.1 177.48-19.4 179.48-20.48 181.48-21.55 185.58-22.85L185.58-22.85 187.98-23.65 187.98-23.75 187.98-27.4Q187.98-28.85 187.41-29.63 186.83-30.4 186.03-30.4L186.03-30.4Q185.33-30.4 184.81-29.75 184.28-29.1 184.28-28L184.28-28 184.28-25.8 175.78-25.8 175.78-27Q175.78-32.4 178.31-34.7 180.83-37 186.53-37L186.53-37Q191.08-37 193.93-34.63 196.78-32.25 196.78-27.9L196.78-27.9 196.78 0 188.08 0 188.08-4.35Q187.43-2.1 186.01-0.85 184.58 0.4 182.63 0.4L182.63 0.4ZM186.08-6.4Q187.08-6.4 187.51-7.23 187.93-8.05 187.93-9.25L187.93-9.25 187.93-19.45Q185.98-18.7 185.06-17.55 184.13-16.4 184.13-14.35L184.13-14.35 184.13-9.65Q184.13-6.4 186.08-6.4L186.08-6.4ZM209.03 0L200.13 0 200.13-43.2 209.03-43.2 209.03 0ZM219.18 0.4Q214.93 0.4 213.35-2.43 211.78-5.25 211.78-10.5L211.78-10.5Q211.78-14.8 212.9-17.1 214.03-19.4 216.03-20.48 218.03-21.55 222.13-22.85L222.13-22.85 224.53-23.65 224.53-23.75 224.53-27.4Q224.53-28.85 223.95-29.63 223.38-30.4 222.58-30.4L222.58-30.4Q221.88-30.4 221.35-29.75 220.83-29.1 220.83-28L220.83-28 220.83-25.8 212.33-25.8 212.33-27Q212.33-32.4 214.85-34.7 217.38-37 223.08-37L223.08-37Q227.63-37 230.48-34.63 233.33-32.25 233.33-27.9L233.33-27.9 233.33 0 224.63 0 224.63-4.35Q223.98-2.1 222.55-0.85 221.13 0.4 219.18 0.4L219.18 0.4ZM222.63-6.4Q223.63-6.4 224.05-7.23 224.48-8.05 224.48-9.25L224.48-9.25 224.48-19.45Q222.53-18.7 221.6-17.55 220.68-16.4 220.68-14.35L220.68-14.35 220.68-9.65Q220.68-6.4 222.63-6.4L222.63-6.4ZM247.67 0.4Q241.67 0.4 239.02-2.65 236.37-5.7 236.37-12L236.37-12 236.37-23.3Q236.37-28.05 237.4-31.03 238.42-34 240.85-35.5 243.27-37 247.57-37L247.57-37Q252.27-37 255.22-34.55 258.17-32.1 258.17-27.7L258.17-27.7 258.17-22.1 249.27-22.1 249.27-27.25Q249.27-28.7 248.87-29.48 248.47-30.25 247.32-30.25L247.32-30.25Q245.17-30.25 245.17-27.2L245.17-27.2 245.17-9.45Q245.17-8.2 245.7-7.33 246.22-6.45 247.27-6.45L247.27-6.45Q248.32-6.45 248.85-7.3 249.37-8.15 249.32-9.5L249.32-9.5 249.27-15.65 258.17-15.65 258.17-9.25Q258.17-4.75 255.25-2.18 252.32 0.4 247.67 0.4L247.67 0.4ZM271.47 0.4Q265.82 0.4 263.37-2.7 260.92-5.8 260.92-11.95L260.92-11.95 260.92-26.65Q260.92-31.7 263.82-34.35 266.72-37 271.92-37L271.92-37Q282.47-37 282.47-26.65L282.47-26.65 282.47-24Q282.47-20 282.37-17.5L282.37-17.5 269.67-17.5 269.67-10.4Q269.67-8.5 270.07-7.43 270.47-6.35 271.77-6.35L271.77-6.35Q272.77-6.35 273.2-6.95 273.62-7.55 273.7-8.33 273.77-9.1 273.77-10.6L273.77-10.6 273.77-14.15 282.47-14.15 282.47-12.05Q282.47-5.65 280-2.63 277.52 0.4 271.47 0.4L271.47 0.4ZM269.62-21.85L273.77-21.85 273.77-26.55Q273.77-30.5 271.82-30.5L271.82-30.5Q269.62-30.5 269.62-26.55L269.62-26.55 269.62-21.85Z" opacity="1" transform="matrix(1,0,0,1,0,0)" fill="#000000" class="wordmark-text-0" data-fill-palette-color="primary" id="text-0"></path></svg></g></svg></g></svg></g></svg></g><g><svg viewBox="0 0 215.8584267233812 94.25625811401171" height="94.25625811401171" width="215.8584267233812"><g><svg xmlns="http://www.w3.org/2000/svg" xmlns:xlink="http://www.w3.org/1999/xlink" version="1.1" x="0" y="0" viewBox="5.985118985722341 30.778632267932444 88.03088101427767 38.43936773206756" enable-background="new 0 0 100 100" xml:space="preserve" height="94.25625811401171" width="215.8584267233812" class="icon-icon-0" data-fill-palette-color="accent" id="icon-0"><path fill-rule="evenodd" clip-rule="evenodd" d="M62.626 33.29c-2.529-0.337-3.994-0.521-4.396-0.555-1.666-0.185-3.178-0.294-4.535-0.324-3.705-0.062-6.869 0.157-9.49 0.647-3.492 0.648-6.439 1.823-8.846 3.52-0.988 0.681-2.205 1.714-3.656 3.104-1.543 1.45-2.686 2.526-3.428 3.238-1.295 1.171-2.453 2.146-3.471 2.916-1.236 0.927-2.439 1.667-3.613 2.225-1.295 0.585-2.529 0.923-3.701 1.018-0.525 0.063-1.145 0.063-1.852 0-0.525 0-1.113-0.125-1.76-0.369-1.021-0.433-1.961-1.063-2.824-1.898-0.311-0.31-0.648-0.727-1.02-1.252-0.4-0.646-0.662-1.109-0.787-1.387-0.248-0.558-0.416-1.034-0.51-1.437-0.092-0.494-0.137-0.973-0.137-1.431 0-0.992 0.23-1.797 0.693-2.412 0.369-0.524 0.834-0.927 1.389-1.202 0.123-0.092 0.324-0.187 0.602-0.278 0.125-0.033 0.309-0.093 0.559-0.185 0.09-0.031 0.215-0.062 0.365-0.093 0.033-0.032 0.064-0.065 0.094-0.096l0.234-0.185c0.154-0.093 0.23-0.214 0.23-0.371 0.029-0.183-0.047-0.354-0.23-0.506-0.25-0.158-0.479-0.262-0.693-0.327-0.25-0.029-0.559 0.048-0.93 0.232-0.801 0.339-1.48 0.895-2.037 1.668-0.617 0.863-1.078 1.929-1.387 3.196-0.154 0.8-0.23 1.446-0.23 1.944-0.033 0.615 0.043 1.278 0.23 1.988 0.186 0.617 0.479 1.234 0.879 1.853 0.369 0.461 0.879 0.955 1.527 1.482 1.051 0.71 2.377 1.294 3.982 1.758l1.109 0.277c0.063 0.03 0.418 0.092 1.066 0.185 0.246 0.03 0.602 0.048 1.064 0.048 0.123 0.03 0.295 0.03 0.51 0 0.092 0 0.262-0.018 0.508-0.048 1.174-0.154 2.393-0.662 3.66-1.525l6.619-5c0.152-0.063 0.385-0.187 0.693-0.372l1.25-0.511c0.771-0.214 1.484-0.354 2.131-0.416 0.492 0 0.912 0.033 1.25 0.095 0-0.156 0-0.264 0-0.327 0.031-0.306 0.061-0.478 0.094-0.506 0.059-0.279 0.121-0.417 0.184-0.417 0.031 0.032 0.061 0.169 0.092 0.417 0.063 0.369 0.109 0.677 0.141 0.923h0.045v0.047c0 0.032 0 0.064 0 0.094 0.123 0.523 0.338 1.035 0.648 1.529 0.309 0.584 0.756 1.141 1.342 1.667 0.494 0.523 1.156 1.095 1.992 1.714 0.432 0.274 1.264 0.848 2.498 1.712 1.205 0.834 2.117 1.556 2.73 2.173 0.527 0.558 0.959 1.096 1.299 1.623 0.338 0.556 0.615 1.248 0.834 2.081 0.154 0.714 0.246 1.45 0.277 2.224 0.029 0.556 0.016 1.252-0.049 2.084l-0.092 0.972c-0.031 0.276-0.047 0.433-0.047 0.465l-0.09 0.553c-0.123 0.834-0.186 1.388-0.186 1.667 0 0.248 0.016 0.415 0.047 0.51 0.059 0.092 0.154 0.2 0.275 0.325 0.217 0.09 0.619 0.248 1.205 0.461l2.453 0.833c1.328 0.431 3.334 1.714 6.02 3.843-1.758 0-3.578 0-5.463 0-8.088 0-15.34-0.06-21.76-0.187 0.092-1.325 0.137-2.016 0.137-2.083-0.029-0.121-0.076-0.212-0.137-0.277-0.063-0.09-0.156-0.153-0.277-0.187h-0.279c-0.217 0.127-0.385 0.202-0.51 0.235-0.123 0.062-0.262 0.094-0.416 0.094-0.123 0-0.277-0.05-0.463-0.143-0.305-0.119-0.555-0.354-0.74-0.69-0.125-0.278-0.201-0.605-0.232-0.975-0.031-0.371-0.031-0.71 0-1.018 0.063-0.556 0.186-1.177 0.373-1.854 0.277-0.803 0.553-1.422 0.834-1.854 0.398-0.673 0.938-1.185 1.617-1.522 0.523-0.279 1.172-0.51 1.947-0.696 0.396-0.062 1.016-0.17 1.85-0.325l2.777-0.74c0.959-0.369 1.775-0.758 2.453-1.16 1.42-0.768 2.686-1.692 3.799-2.775 0.309-0.274 0.615-0.569 0.924-0.879-0.463-0.401-1.061-0.894-1.805-1.482-1.141-0.863-1.961-1.496-2.453-1.898-0.834-0.677-1.512-1.31-2.037-1.898-0.494-0.617-0.896-1.201-1.205-1.758-0.186 0.462-0.398 0.987-0.646 1.573-0.496 1.235-1.234 2.639-2.221 4.214l-0.791 1.111c-0.369 0.523-0.662 0.91-0.877 1.158-0.092 0.183-0.402 0.54-0.926 1.063l-0.51 0.604c-0.125 0.123-0.311 0.292-0.557 0.503-0.246 0.22-0.633 0.514-1.156 0.883-0.465 0.372-0.789 0.648-0.973 0.833-0.555 0.494-0.926 1.16-1.111 1.992-0.092 0.527-0.186 1.343-0.277 2.454-0.092 1.143-0.154 1.898-0.186 2.27 0 0.185-0.045 0.508-0.139 0.97l-0.787 4.258c-0.773-0.06-1.434-0.104-1.992-0.135-7.93-0.185-11.898-0.448-11.898-0.788 0-0.245 3.969-0.479 11.898-0.692 0.492 0 0.988 0 1.482 0l0.094-0.603c0.213-1.206 0.322-2.254 0.322-3.152v-2.269c0.031-1.079 0.111-1.976 0.232-2.684 0.092-0.558 0.262-1.08 0.508-1.575 0.248-0.463 0.557-0.896 0.928-1.298 0.309-0.275 0.68-0.6 1.109-0.967 0.617-0.434 0.988-0.712 1.111-0.833 0.096-0.099 0.248-0.233 0.463-0.418l0.465-0.558c0.215-0.217 0.523-0.556 0.924-1.018l1.576-2.036c1.051-1.514 1.85-2.794 2.406-3.845 0.311-0.556 0.664-1.266 1.066-2.129h0.045c-0.123-0.34-0.199-0.71-0.23-1.111-0.154 0.03-0.541 0.094-1.16 0.183-0.584 0.129-1.232 0.327-1.941 0.602l-1.16 0.606c-0.244 0.213-0.43 0.354-0.553 0.415-0.186 0.123-0.279 0.202-0.279 0.232l-6.156 5.138c-1.42 0.99-2.822 1.59-4.215 1.808-0.617 0.06-1.002 0.09-1.156 0.09-0.588 0-0.988-0.017-1.205-0.046-0.557-0.06-0.953-0.141-1.203-0.23-0.557-0.125-0.941-0.231-1.158-0.325-1.76-0.462-3.225-1.125-4.396-1.988C8.444 48.8 7.843 48.2 7.351 47.55c-0.525-0.738-0.896-1.526-1.111-2.359-0.217-0.898-0.297-1.744-0.234-2.548 0.033-0.71 0.156-1.464 0.371-2.268 0.371-1.42 0.959-2.608 1.76-3.566 0.74-0.896 1.576-1.494 2.502-1.806 0.523-0.183 0.955-0.213 1.295-0.09 0.152 0.03 0.34 0.107 0.557 0.232l0.416 0.413c0.307 0.371 0.416 0.712 0.324 1.02-0.094 0.218-0.232 0.387-0.418 0.51 0 0.031-0.078 0.079-0.23 0.141l-0.648 0.276c-0.217 0.123-0.387 0.214-0.51 0.277-0.248 0.095-0.432 0.202-0.555 0.325-0.463 0.308-0.834 0.709-1.109 1.206-0.371 0.554-0.543 1.215-0.512 1.992 0.031 0.429 0.092 0.831 0.186 1.2 0.092 0.338 0.262 0.738 0.512 1.204 0.121 0.276 0.367 0.679 0.738 1.203 0.34 0.429 0.664 0.801 0.973 1.11 0.801 0.74 1.652 1.248 2.545 1.526 0.586 0.218 1.098 0.327 1.529 0.327 0.678 0.062 1.221 0.044 1.621-0.048 1.107-0.123 2.252-0.462 3.426-1.018 1.049-0.524 2.16-1.252 3.334-2.175 0.957-0.744 2.066-1.716 3.332-2.918 0.74-0.681 1.865-1.762 3.381-3.242 1.479-1.389 2.744-2.472 3.795-3.238 2.594-1.883 5.709-3.15 9.352-3.797 2.715-0.496 5.973-0.712 9.768-0.65 1.359 0.029 2.902 0.154 4.633 0.371 0.523 0.061 1.988 0.262 4.396 0.599 3.428 0.466 6.111 0.681 8.057 0.65 0.307 0.03 0.908 0.017 1.805-0.045l1.852-0.14c1.451-0.122 2.625-0.049 3.52 0.232 0.092 0.063 0.369 0.167 0.832 0.325 0.465 0.274 0.727 0.431 0.787 0.461l1.297 0.925c0.523 0.372 1.266 1.051 2.223 2.037 1.512 1.484 2.67 2.535 3.473 3.148 0.834 0.619 1.652 1.067 2.453 1.344l0.693 0.229c0.154 0.063 0.232 0.109 0.232 0.143h-0.557c-0.092 0-0.168 0-0.23 0l-0.23-0.047c-0.771-0.153-1.652-0.544-2.641-1.157-0.924-0.554-2.145-1.543-3.656-2.964-1.051-0.898-1.807-1.514-2.268-1.851-1.02-0.744-1.898-1.219-2.641-1.437-0.803-0.215-1.883-0.278-3.242-0.185l-1.758 0.231c-0.986 0.123-1.637 0.185-1.943 0.185-1.205 0.03-2.531-0.014-3.982-0.141C65.698 33.616 64.294 33.475 62.626 33.29zM52.351 40.33c0.152 0.246 0.465 0.708 0.926 1.389 0.523 0.74 0.955 1.387 1.295 1.94 0.217 0.406 0.418 0.853 0.604 1.347 0.217 0.615 0.354 1.173 0.416 1.665 0.094 0.585 0.031 1.235-0.186 1.942 0 0.033-0.014 0.065-0.047 0.097 0.523 0.153 1.049 0.339 1.574 0.554 0.895 0.371 1.992 0.896 3.287 1.575l3.148 1.437c0.711 0.183 1.607 0.292 2.686 0.319 0.156 0 0.416-0.016 0.787-0.042-0.092-0.065-0.184-0.141-0.279-0.233-0.432-0.431-0.77-0.804-1.016-1.111-0.094-0.153-0.217-0.369-0.371-0.646-0.184-0.369-0.295-0.633-0.324-0.788-0.063-0.125-0.123-0.387-0.184-0.789 0-0.371 0.012-0.647 0.045-0.832 0.061-0.74 0.307-1.541 0.74-2.406 0.43-0.833 1.049-1.792 1.852-2.871 0.494-0.617 0.771-0.91 0.832-0.879 0.094 0.125-0.029 0.538-0.371 1.248-0.059 0.094-0.275 0.527-0.645 1.298-0.311 0.648-0.559 1.204-0.744 1.666-0.338 0.865-0.508 1.56-0.508 2.085 0 0.09 0 0.246 0 0.461 0.063 0.279 0.111 0.448 0.139 0.51 0.031 0.063 0.107 0.216 0.232 0.464l0.322 0.508c0.434 0.494 1.066 1.052 1.898 1.667 0.494 0.373 1.283 0.91 2.363 1.623 0.557 0.308 1.373 0.815 2.453 1.525 0.924 0.617 1.666 1.19 2.221 1.714 0.123 0.123 0.295 0.322 0.512 0.604l0.275 0.23 0.188 0.369c0.123 0.216 0.184 0.339 0.184 0.37 0.092 0.248 0.139 0.401 0.139 0.461 0.094 0.31 0.094 0.652 0 1.02-0.092 0.278-0.217 0.527-0.371 0.742-0.061 0.091-0.197 0.279-0.414 0.554l-0.787 0.974h-0.047v0.048l-0.094 0.093L74.897 62.6c-0.123 0.213-0.246 0.477-0.373 0.786-0.09 0.244-0.137 0.462-0.137 0.648-0.029 0.215-0.014 0.369 0.047 0.461 0.029 0.156 0.09 0.262 0.186 0.323 0.059 0.093 0.139 0.185 0.229 0.279 0.156 0.123 0.219 0.202 0.186 0.23 0 0.062-0.092 0.079-0.275 0.046-0.125 0-0.248-0.028-0.371-0.09l-0.232-0.187c-0.125-0.154-0.199-0.262-0.23-0.323-0.125-0.154-0.201-0.402-0.232-0.74 0-0.277 0.031-0.604 0.094-0.974 0.092-0.371 0.186-0.679 0.279-0.925l0.229-0.512 0.047-0.137 0.047-0.044 0.186-0.279c0.092-0.153 0.309-0.465 0.648-0.931 0.246-0.367 0.383-0.644 0.416-0.833 0.031-0.119 0.031-0.213 0-0.274l-0.094-0.141-0.047-0.23-0.787-0.787c-0.461-0.401-1.158-0.911-2.082-1.526-0.957-0.525-1.699-0.974-2.223-1.343-0.186 0.216-0.338 0.415-0.463 0.601-0.555 0.771-1.051 1.621-1.482 2.546-0.277 0.585-0.492 1.113-0.645 1.573-0.219 0.679-0.313 1.236-0.281 1.669 0.031 0.402 0.203 0.862 0.51 1.391 0.463 0.646 0.771 1.031 0.928 1.156l0.137 0.09h0.141l0.832-0.09c0.557-0.063 1.002-0.063 1.342 0 0.248 0.026 0.479 0.09 0.697 0.187 0.215 0.09 0.4 0.26 0.555 0.506 0.154 0.31 0.34 1.111 0.557 2.407 0 0.063 0 0.11 0 0.137 1.912 0.033 3.75 0.065 5.508 0.099 7.932 0.213 11.9 0.447 11.9 0.692 0 0.34-3.969 0.604-11.9 0.788-1.822 0.062-3.768 0.104-5.832 0.135-0.125-1.295-0.217-2.016-0.279-2.176-0.246-0.863-0.432-1.357-0.555-1.48-0.125-0.09-0.217-0.141-0.279-0.141-0.123-0.028-0.262-0.028-0.414 0-0.311 0-0.693 0.065-1.16 0.187l-1.248 0.233c-0.279-0.062-0.465-0.139-0.557-0.233-0.123-0.028-0.217-0.09-0.279-0.187l-0.184-0.137c-0.029 0-0.154-0.125-0.369-0.369l-0.604-0.79c-0.279-0.431-0.463-0.77-0.555-1.014-0.154-0.405-0.246-0.835-0.279-1.298-0.031-0.679 0.094-1.45 0.371-2.315 0.184-0.525 0.463-1.127 0.834-1.806 0.555-0.956 1.189-1.822 1.898-2.595 0.092-0.093 0.199-0.198 0.324-0.321l-0.648-0.417c-0.465-0.308-0.85-0.585-1.16-0.833-0.461 0.183-1 0.336-1.619 0.463-0.092 0.029-0.184 0.047-0.277 0.047 0 0.397-0.014 0.8-0.047 1.202-0.152 1.821-0.555 3.75-1.203 5.786-0.248 0.684-0.371 1.112-0.371 1.297-0.029 0.217-0.029 0.373 0 0.463 0.031 0.123 0.094 0.295 0.188 0.51 0.152 0.277 0.387 0.569 0.693 0.881 0.031 0.093 0.277 0.369 0.74 0.833 0.434 0.494 0.756 1 0.973 1.527 0.092 0.187 0.525 1.096 1.295 2.732-3.766 0.093-7.822 0.152-12.176 0.185 0.402-1.667 0.633-2.7 0.695-3.1l0.049-0.791c0-0.369-0.031-0.602-0.096-0.694-0.092-0.183-0.246-0.308-0.463-0.369-0.246-0.062-0.568-0.03-0.971 0.091l-2.594 0.187c-0.557 0-1.064-0.091-1.527-0.277-0.646-0.153-1.158-0.525-1.525-1.109-0.342-0.433-0.635-1.067-0.881-1.9l-0.326-1.942c-0.123-0.865-0.154-1.593-0.092-2.177 0.063-0.743 0.277-1.481 0.648-2.224 0.033-0.123 0.109-0.292 0.232-0.51l0.322-0.463c0.096-0.121 0.295-0.385 0.604-0.785 0.215-0.248 0.648-0.696 1.295-1.343 1.111-1.144 1.854-1.961 2.223-2.453 0.309-0.464 0.541-0.896 0.693-1.297 0.156-0.433 0.201-0.85 0.141-1.25 0-0.373-0.078-0.821-0.232-1.341-0.184-0.558-0.34-0.959-0.461-1.205-0.156-0.279-0.51-0.944-1.066-1.993-0.34-0.647-0.604-1.187-0.787-1.621-0.186-0.431-0.293-0.817-0.324-1.157-0.063-0.279-0.063-0.431 0-0.46 0.031 0 0.125 0.121 0.277 0.369C52.103 39.927 52.288 40.238 52.351 40.33zM73.692 49.172c0.494 0.308 0.973 0.663 1.436 1.063 0.063-0.154 0.154-0.291 0.279-0.416 0.338-0.371 0.848-0.725 1.525-1.065 0.742-0.274 1.605-0.417 2.592-0.417 0.465 0 0.973 0.03 1.531 0.094 0.34 0.063 0.615 0.139 0.83 0.231 0.246 0.063 0.527 0.169 0.834 0.322 1.051 0.434 1.961 1.114 2.73 2.041 0.279 0.337 0.557 0.817 0.834 1.433 0.127 0.22 0.293 0.617 0.51 1.204 0.25 0.71 0.479 1.296 0.693 1.76 0.096 0.246 0.156 0.385 0.186 0.417 0.031 0.123 0.031 0.214 0 0.279-0.029 0.03-0.09 0.03-0.186 0-0.152-0.065-0.293-0.169-0.414-0.329-0.34-0.306-0.711-0.831-1.111-1.571-0.277-0.462-0.494-0.815-0.648-1.063-0.279-0.433-0.539-0.773-0.787-1.02-0.709-0.742-1.482-1.278-2.314-1.621l-1.391-0.463c-0.523-0.091-0.971-0.17-1.342-0.231-0.895-0.092-1.666-0.046-2.314 0.141-0.463 0.06-0.953 0.2-1.479 0.415-0.066 0.031-0.125 0.079-0.189 0.139 0.402 0.343 0.787 0.728 1.158 1.158 0.494 0.522 0.973 1.157 1.436 1.899 0.494 0.77 0.896 1.527 1.205 2.268 0.121 0.31 0.293 0.726 0.508 1.248l0.416 1.206c0.311 1.02 0.449 1.896 0.418 2.637-0.031 0.464-0.107 0.912-0.23 1.345-0.156 0.399-0.324 0.769-0.51 1.111-0.34 0.556-0.773 1.018-1.297 1.389-0.742 0.585-1.527 0.927-2.363 1.018-0.275 0-0.51-0.018-0.693-0.049-0.152-0.028-0.23-0.06-0.23-0.088 0-0.095 0.061-0.173 0.184-0.232 0.064-0.033 0.264-0.123 0.604-0.279 0.803-0.4 1.436-0.833 1.898-1.296 0.369-0.4 0.664-0.817 0.879-1.248 0.154-0.25 0.279-0.512 0.371-0.789 0.061-0.246 0.092-0.538 0.092-0.881 0-0.584-0.139-1.268-0.416-2.032-0.154-0.529-0.445-1.285-0.879-2.273-0.342-0.77-0.709-1.481-1.113-2.129-0.371-0.618-0.771-1.22-1.205-1.805-0.74-0.929-1.586-1.744-2.545-2.455-0.555-0.4-1.219-0.801-1.988-1.202-0.525-0.279-0.789-0.464-0.789-0.554 0.031-0.097 0.338-0.127 0.926-0.097C72.073 48.479 72.856 48.74 73.692 49.172zM92.954 44.125c0.244 0.773 0.475 1.512 0.691 2.223 0.094 0.37 0.186 0.771 0.279 1.202 0.031 0.4 0.049 0.65 0.049 0.743l0.043 0.369c0 0.125-0.016 0.278-0.043 0.463-0.127 0.369-0.203 0.633-0.234 0.789l-0.322 0.6c-0.123 0.25-0.205 0.494-0.232 0.744v0.462c0 0.123 0.014 0.276 0.045 0.462 0.033 0.094 0.107 0.413 0.232 0.973 0.154 0.556 0.246 0.925 0.277 1.111 0.031 0.123 0.047 0.323 0.047 0.599 0 0.371-0.029 0.635-0.094 0.79 0 0.093-0.076 0.277-0.23 0.554-0.125 0.185-0.232 0.341-0.326 0.464-0.182 0.185-0.307 0.294-0.367 0.325-0.156 0.09-0.279 0.151-0.373 0.185-0.43 0.306-0.877 0.48-1.342 0.508-0.369 0.063-0.738 0.03-1.111-0.091-0.246-0.094-0.43-0.23-0.553-0.417-0.125-0.095-0.172-0.167-0.141-0.232 0.031-0.062 0.107-0.062 0.232 0 0.244 0 0.445 0 0.602 0 0.617 0 1.217-0.246 1.805-0.741l0.465-0.419 0.137-0.321c0.063-0.092 0.094-0.169 0.094-0.232 0-0.031 0-0.105 0-0.23l-0.047-0.416c-0.063-0.217-0.154-0.54-0.277-0.975-0.188-0.556-0.309-0.908-0.371-1.062 0-0.125-0.018-0.343-0.045-0.65l-0.049-0.74c0.061-0.494 0.109-0.77 0.139-0.833 0.033-0.153 0.078-0.278 0.139-0.369l0.141-0.281c0.184-0.369 0.307-0.677 0.371-0.925l-0.047-0.877c-0.063-0.312-0.141-0.665-0.234-1.065-0.057-0.31-0.244-1.034-0.553-2.175l-0.324-0.927c-0.186-0.523-0.295-0.805-0.326-0.835-0.273-0.771-0.492-1.31-0.648-1.619-0.242-0.557-0.43-0.974-0.555-1.25-0.244-0.464-0.4-0.791-0.463-0.972-0.246-0.587-0.34-0.913-0.275-0.973 0.061-0.095 0.291 0.074 0.693 0.507 0.34 0.37 0.57 0.662 0.695 0.881l0.787 1.202c0.092 0.158 0.369 0.679 0.832 1.575 0.063 0.095 0.188 0.4 0.371 0.927L92.954 44.125zM65.081 53.891c-0.711 0.033-1.355-0.014-1.947-0.135l-1.756-0.602c-0.527-0.217-1.096-0.477-1.713-0.788l-3.195-1.67c-0.555-0.272-1.111-0.536-1.666-0.782-0.061 0.121-0.139 0.246-0.232 0.369-0.277 0.431-0.645 0.907-1.109 1.437-0.248 0.276-0.646 0.692-1.205 1.25-0.557 0.615-0.957 1.063-1.203 1.339-0.154 0.187-0.34 0.419-0.555 0.696l-0.186 0.371c-0.123 0.215-0.199 0.34-0.23 0.371-0.434 0.863-0.555 1.973-0.373 3.335 0 0.183 0.049 0.479 0.139 0.875l0.141 0.927c0.125 0.591 0.291 1.032 0.51 1.345 0.215 0.276 0.525 0.509 0.926 0.691 0.307 0.123 0.725 0.218 1.25 0.279l0.602 0.046c0.217 0 0.418 0 0.602 0 0.771-0.06 1.174-0.09 1.203-0.09 0.496-0.033 0.896 0 1.201 0.09 0.281 0.093 0.496 0.202 0.65 0.325l0.141 0.139 0.094 0.139c0.029 0.03 0.076 0.155 0.137 0.373 0.123 0.336 0.154 0.705 0.094 1.107-0.063 0.402-0.109 0.758-0.141 1.067-0.031 0.277-0.031 0.523 0 0.738 3.025-0.03 6.018-0.03 8.982 0l-1.02-1.433c-0.463-0.373-0.756-0.604-0.879-0.698-0.371-0.336-0.695-0.707-0.973-1.111-0.217-0.304-0.34-0.583-0.369-0.831-0.125-0.338-0.172-0.711-0.141-1.113 0-0.246 0.063-0.585 0.188-1.018l0.275-0.74c0.432-1.391 0.941-3.21 1.529-5.462C64.944 54.356 65.019 54.079 65.081 53.891zM41.655 53.891c-1.111 1.268-2.406 2.364-3.891 3.291-0.771 0.492-1.648 0.923-2.639 1.296l-1.434 0.508c-0.555 0.156-1.064 0.264-1.527 0.327l-1.852 0.367c-0.68 0.121-1.221 0.294-1.619 0.51-0.465 0.217-0.836 0.542-1.113 0.975-0.248 0.4-0.494 0.879-0.74 1.436-0.217 0.646-0.354 1.157-0.418 1.524-0.063 0.558-0.045 0.96 0.047 1.204 0.033 0.095 0.094 0.202 0.188 0.327l0.139 0.046c0.029 0 0.092 0 0.184 0l0.693-0.187c0.063-0.032 0.125-0.032 0.186 0 0.125 0 0.246 0.046 0.371 0.141 0.246 0.088 0.43 0.246 0.555 0.464 0.092 0.213 0.141 0.475 0.141 0.782 0 0.097 0 0.202 0 0.327 6.201-0.095 13.223-0.141 21.064-0.141 0.494 0 0.971 0 1.436 0-0.711-0.248-1.467-0.479-2.271-0.692l-2.451-0.558c-0.68-0.154-1.188-0.339-1.529-0.554-0.338-0.216-0.604-0.494-0.785-0.833-0.033-0.063-0.08-0.169-0.139-0.327l-0.045-0.323c-0.035-0.187-0.049-0.384-0.049-0.602 0-0.435 0.063-1.079 0.184-1.944l0.141-1.854c0.09-1.57 0.016-2.806-0.23-3.701-0.156-0.648-0.355-1.189-0.604-1.62-0.277-0.435-0.633-0.865-1.064-1.3C42.304 53.154 41.995 53.525 41.655 53.891z" fill="#000000" data-fill-palette-color="accent"></path></svg></g></svg></g></svg></g><defs></defs></svg><rect width="395.52" height="57.377944001649034" fill="none" stroke="none" visibility="hidden"></rect></g></svg></g></svg>